<?xml version="1.0" encoding="UTF-8" standalone="no"?>
<!-- Created with Inkscape (http://www.inkscape.org/) -->

<svg
   width="271.46249mm"
   height="92.339584mm"
   viewBox="0 0 271.46249 92.339584"
   version="1.1"
   id="svg5"
   inkscape:version="1.1.1 (c3084ef, 2021-09-22)"
   sodipodi:docname="tf-logo.svg"
   xmlns:inkscape="http://www.inkscape.org/namespaces/inkscape"
   xmlns:sodipodi="http://sodipodi.sourceforge.net/DTD/sodipodi-0.dtd"
   xmlns="http://www.w3.org/2000/svg"
   xmlns:svg="http://www.w3.org/2000/svg">
  <sodipodi:namedview
     id="namedview7"
     pagecolor="#ffffff"
     bordercolor="#666666"
     borderopacity="1.0"
     inkscape:pageshadow="2"
     inkscape:pageopacity="0.0"
     inkscape:pagecheckerboard="0"
     inkscape:document-units="mm"
     showgrid="false"
     fit-margin-top="0"
     fit-margin-left="0"
     fit-margin-right="0"
     fit-margin-bottom="0"
     inkscape:zoom="0.77771465"
     inkscape:cx="513.04164"
     inkscape:cy="174.22843"
     inkscape:window-width="2021"
     inkscape:window-height="1081"
     inkscape:window-x="666"
     inkscape:window-y="353"
     inkscape:window-maximized="0"
     inkscape:current-layer="layer1" />
  <defs
     id="defs2" />
  <g
     inkscape:label="Layer 1"
     inkscape:groupmode="layer"
     id="layer1"
     transform="translate(132.49928,-106.41268)">
    <path
       style="fill:#000000;stroke-width:0.264583"
       d="m -30.906917,188.07954 c -3.187475,-0.36741 -6.231059,-2.47006 -7.681087,-5.30646 -1.216617,-2.37983 -1.300646,-3.24327 -1.303972,-13.39904 l -0.0031,-9.59114 h 0.926042 0.926042 l 0.0052,8.53281 c 0.0055,8.90569 0.200459,11.42942 1.027528,13.29914 0.723445,1.63547 2.245945,3.18546 3.951838,4.02319 1.290793,0.63388 1.808358,0.7338 3.746643,0.72331 2.786554,-0.0151 4.52093,-0.70246 6.102921,-2.41871 2.342724,-2.54156 2.616049,-4.16989 2.623087,-15.62693 l 0.0052,-8.53281 h 0.926042 0.926041 l -0.0031,9.59114 c -0.0024,7.15564 -0.09288,9.92708 -0.356521,10.91407 -1.462529,5.4751 -5.994508,8.46276 -11.818804,7.79143 z m -37.827782,-0.48516 c -3.750204,-1.21247 -5.844886,-3.01148 -7.535648,-6.47196 -0.91803,-1.87893 -1.2495,-2.92595 -1.478706,-4.67077 -1.319638,-10.04574 4.847272,-17.44302 14.041437,-16.84286 8.046381,0.52523 12.920027,6.64781 12.344767,15.50828 -0.09017,1.38886 -0.340764,3.09629 -0.556871,3.7943 -1.375759,4.44356 -4.643932,7.64258 -9.009771,8.81915 -1.902254,0.51264 -6.020686,0.44081 -7.805208,-0.13614 z m 6.017059,-1.33806 c 5.835565,-0.84403 9.334462,-5.52968 9.325633,-12.4887 -0.007,-5.51369 -2.223585,-9.50942 -6.346102,-11.43979 -1.432608,-0.67081 -2.131589,-0.82369 -4.176676,-0.91348 -2.587683,-0.11361 -4.144547,0.16913 -6.010539,1.09158 -3.709654,1.83385 -5.94786,6.08733 -5.946074,11.29988 0.0024,6.74919 3.433376,11.47593 9.000072,12.39877 1.952487,0.32368 2.248027,0.32736 4.153686,0.0517 z M -103.6597,173.80581 V 159.7829 h 8.334374 8.334378 v 0.78956 0.78957 l -7.342188,0.0703 -7.342184,0.0703 -0.0712,5.88698 -0.0712,5.88698 h 6.504124 6.504112 l -0.08291,0.85989 -0.08291,0.8599 -6.416142,0.0709 -6.416144,0.0709 v 6.34529 6.3453 h -0.92605 -0.92604 z m 98.1604157,0 V 159.7829 h 0.665464 c 0.569256,0 1.9941113,1.77442 9.8557285,12.27371 l 9.1902648,12.27372 0.06877,-12.29029 0.06877,-12.29028 0.857269,0.0827 0.857268,0.0827 0.06848,13.95677 0.06848,13.95677 h -0.79469 c -0.739523,0 -1.437629,-0.85707 -10.0565048,-12.34643 l -9.2618155,-12.34642 v 12.34642 12.34643 h -0.79375 -0.79375 z m 34.9249983,0 V 159.7829 l 5.357812,0.008 c 6.806711,0.0104 8.771946,0.26169 11.250295,1.43865 5.088212,2.41638 7.698348,8.01976 6.921283,14.85845 -0.660969,5.81696 -4.087537,9.95558 -9.385176,11.33544 -1.185724,0.30883 -3.051373,0.40512 -7.849803,0.40512 h -6.294411 z m 13.361458,12.07523 c 4.083891,-1.09254 6.790192,-3.89575 7.826213,-8.10648 0.196927,-0.80036 0.349771,-2.70536 0.339656,-4.23333 -0.03847,-5.8121 -2.415174,-9.5709 -7.211972,-11.40588 -1.282647,-0.49067 -2.207099,-0.58553 -6.840876,-0.70195 l -5.357812,-0.13461 v 12.47122 12.47122 l 4.960937,-0.003 c 3.296909,-0.002 5.404678,-0.12185 6.283854,-0.35705 z m 22.092707,-12.10659 v -14.05427 l 5.093229,0.13038 c 7.175923,0.18369 9.304427,0.94858 10.859355,3.90236 0.709117,1.34706 0.757631,1.62302 0.659995,3.75423 -0.09612,2.09806 -0.185513,2.41899 -1.016794,3.65031 -0.501277,0.74251 -1.441804,1.7043 -2.090065,2.13732 -1.083824,0.72395 -3.325366,1.56937 -4.161033,1.56937 -0.421873,0 -0.46045,0.42896 -0.06079,0.67597 0.158438,0.0979 2.443163,2.87315 5.077169,6.16718 l 4.789101,5.98914 -0.869021,0.0848 c -0.477962,0.0466 -1.021614,0.0262 -1.208117,-0.0453 -0.186502,-0.0716 -2.503445,-2.87376 -5.148765,-6.22709 -5.337796,-6.76646 -4.971168,-6.48415 -8.220098,-6.32959 l -1.719792,0.0818 -0.07093,6.28386 -0.07093,6.28385 H 65.80114 64.879887 Z m 8.590595,-0.24557 c 3.620021,-0.52315 5.82567,-2.53457 6.142183,-5.6013 0.188375,-1.82517 -0.23155,-3.14409 -1.419791,-4.45933 -1.410364,-1.5611 -2.892507,-1.9484 -7.492153,-1.95776 l -3.836459,-0.008 -0.07147,5.81457 c -0.03931,3.19802 -0.01328,5.96622 0.05784,6.15156 0.159956,0.41684 3.915328,0.45091 6.619851,0.0601 z m 27.113686,8.41287 -0.0145,-5.88698 -5.104039,-8.06979 -5.104037,-8.06979 0.925589,-0.0845 c 0.635455,-0.058 1.067048,0.0664 1.376878,0.39688 0.492117,0.52495 7.840989,12.34828 8.596329,13.83033 l 0.46559,0.91351 0.69309,-1.33926 c 0.38119,-0.73659 2.41949,-4.09878 4.52954,-7.47153 3.87924,-6.20066 4.1797,-6.54387 5.54464,-6.33348 0.50919,0.0785 0.009,0.98063 -4.5989,8.29016 l -5.17027,8.20209 -0.004,5.75468 -0.004,5.75469 h -1.05833 -1.05833 l -0.0145,-5.88698 z m -223.02927,-29.6992 v -0.92632 H 3.1164373 128.67799 l -0.0829,0.8599 -0.0829,0.85989 -125.4786425,0.0664 -125.4786375,0.0664 z M 0.88104961,144.41957 c -1.6019198,-0.28449 -3.37105621,-1.17815 -4.88756591,-2.46891 -0.936884,-0.79742 -0.991449,-0.91577 -0.663959,-1.44017 0.484066,-0.77511 0.916641,-0.71978 2.0324952,0.25995 3.7811788,3.31992 10.2676771,2.73088 12.227332,-1.11036 1.1656611,-2.28488 1.0016411,-4.74451 -0.421423,-6.31967 -0.9775745,-1.08206 -1.8173064,-1.49036 -6.2667645,-3.04707 -4.6102374,-1.61297 -6.3031477,-3.26208 -6.4985237,-6.33038 -0.195442,-3.0694 1.0083218,-5.39488 3.52203271,-6.80399 3.16947009,-1.77671 8.25284079,-1.28025 10.94410559,1.06885 0.600848,0.52445 0.607983,0.57235 0.182092,1.22234 l -0.44326,0.67651 -0.8435521,-0.56395 C 9.3001042,119.25255 8.2826887,118.69517 7.5031336,118.3241 6.2641878,117.73436 5.82957,117.66426 4.0506149,117.76725 c -1.4870985,0.0861 -2.3334953,0.28549 -3.14305409,0.74049 -2.77762751,1.56111 -3.56717061,5.31038 -1.592019,7.55995 1.012817,1.15354 1.4856406,1.40011 5.43557329,2.8346 4.8850337,1.77409 6.3985639,2.86867 7.1755609,5.18936 0.796425,2.37872 -0.02572,5.85949 -1.851933,7.8407 -1.9785141,2.14644 -5.5983368,3.12573 -9.19369339,2.48722 z M 49.868125,144.30104 c -4.521572,-0.98235 -8.050207,-4.42967 -9.486598,-9.26799 -0.559125,-1.88335 -0.63932,-7.28439 -0.13471,-9.07238 1.554425,-5.50776 5.713077,-9.23198 10.959484,-9.81461 8.940635,-0.99287 15.251889,4.85654 15.251889,14.1358 0,5.82799 -2.594649,10.67411 -6.87071,12.83266 -2.962209,1.49531 -6.378429,1.91236 -9.719355,1.18652 z m 7.66544,-2.22121 c 2.766835,-1.07249 5.087627,-3.58463 6.135221,-6.64104 0.703818,-2.05343 0.869702,-6.74675 0.314058,-8.88558 -0.631317,-2.43011 -1.356881,-3.87771 -2.682698,-5.35233 -2.65467,-2.95264 -6.978718,-4.15341 -11.095391,-3.08115 -5.354505,1.39467 -8.328231,5.76492 -8.339714,12.25623 -0.01056,5.96989 2.811116,10.38222 7.669006,11.99222 2.021662,0.67002 5.886518,0.5307 7.999518,-0.28835 z M -99.426366,131.2079 v -13.22917 h -4.894794 -4.89479 v -0.79375 -0.79375 h 10.847924 10.847911 v 0.79375 0.79375 h -4.894791 -4.89479 v 13.22917 13.22916 h -1.05833 -1.05834 z m 16.668751,-0.81687 v -14.04604 l 5.490104,0.10223 c 6.282383,0.117 7.638258,0.44357 9.372213,2.25741 1.211567,1.26739 1.527471,1.89764 1.800005,3.59117 0.433629,2.69457 -0.455726,5.22338 -2.454057,6.97794 -0.926214,0.81322 -3.467235,1.93416 -4.384511,1.93416 -0.803365,0 -0.864005,0.32992 -0.191151,1.03999 0.354301,0.37389 2.674398,3.23964 5.155774,6.36834 l 4.511595,5.68854 -0.944689,0.0837 c -0.624904,0.0553 -1.119222,-0.0743 -1.46027,-0.38293 -0.283567,-0.25662 -2.444779,-2.91314 -4.802693,-5.90338 -2.357911,-2.99023 -4.495471,-5.64564 -4.750133,-5.90092 -0.372885,-0.37379 -0.926568,-0.46415 -2.844271,-0.46415 h -2.38125 v 6.35 6.35 h -1.058333 -1.058333 z m 10.980208,-0.9886 c 0.727604,-0.33228 1.665351,-0.92519 2.083884,-1.31757 2.355729,-2.20853 2.317891,-6.57621 -0.07441,-8.5892 -1.366848,-1.15012 -3.111941,-1.51693 -7.216875,-1.51693 h -3.656145 v 6.11023 6.11022 l 3.770313,-0.0963 c 3.235364,-0.0826 3.958013,-0.18202 5.093229,-0.70046 z m 9.653828,14.8362 c -0.0019,-0.10914 2.528173,-6.41652 5.622395,-14.0164 l 5.625859,-13.81796 1.066837,-0.007 1.066837,-0.007 5.70684,13.95677 5.706843,13.95677 -0.771692,0.0842 c -0.424431,0.0463 -0.932143,-0.049 -1.128249,-0.21172 -0.196107,-0.16275 -1.094057,-2.13541 -1.995448,-4.38367 l -1.638892,-4.08777 h -6.935637 -6.935636 l -1.541315,3.90261 c -0.847722,2.14643 -1.720971,4.11096 -1.940554,4.36562 -0.388909,0.45104 -1.901275,0.66074 -1.908188,0.26459 z m 18.405635,-10.58334 c -0.0964,-0.25466 -1.501005,-3.75993 -3.121345,-7.7895 l -2.946074,-7.32648 -3.124668,7.72162 c -1.718567,4.24689 -3.124668,7.75217 -3.124668,7.7895 0,0.0373 2.810705,0.0679 6.246015,0.0679 5.838968,0 6.234594,-0.0302 6.07074,-0.46302 z m 11.23116,-3.25791 V 116.3577 l 0.757219,0.0829 c 0.660408,0.0723 1.920492,1.63712 9.855729,12.23912 l 9.09851,12.1562 0.06879,-12.22235 0.06879,-12.22235 h 0.79111 0.791107 v 14.02292 c 0,13.35263 -0.02289,14.02291 -0.478597,14.02291 -0.263229,0 -0.664967,-0.14882 -0.892752,-0.33073 -0.227785,-0.1819 -4.447495,-5.74487 -9.377132,-12.36216 l -8.962977,-12.03143 -0.06876,12.36216 -0.06876,12.36216 h -0.791133 -0.791134 z m 51.064582,-0.006 v -14.04604 l 5.490104,0.10943 c 6.337307,0.12632 7.212263,0.33508 9.310205,2.22131 3.11794,2.80329 3.25001,8.32039 0.273333,11.41823 -2.074716,2.15916 -4.688519,2.95604 -9.71583,2.96211 l -3.241146,0.004 v 5.68854 5.68854 h -1.058333 -1.058333 z m 11.177026,0.22843 c 2.689556,-1.24541 3.970528,-3.24778 3.953613,-6.18014 -0.01184,-2.05132 -0.669708,-3.63996 -1.985904,-4.79559 -1.467885,-1.2888 -3.133535,-1.665 -7.371924,-1.665 h -3.656145 v 6.7763 6.7763 l 3.770313,-0.10408 c 3.401748,-0.0939 3.918873,-0.17287 5.290047,-0.80779 z m 43.327138,-0.22843 v -14.04604 l 5.490104,0.10943 c 6.433982,0.12825 7.403915,0.3671 9.324576,2.29615 1.400767,1.40689 1.855197,2.65366 1.851485,5.07969 -0.0033,2.1562 -0.831006,4.00714 -2.387814,5.33971 -1.10644,0.94707 -3.490881,2.03793 -4.454597,2.03793 -0.261329,0 -0.544295,0.0692 -0.628814,0.15367 -0.08452,0.0845 2.097847,2.97178 4.849702,6.41614 2.751857,3.44436 5.00382,6.35178 5.004366,6.46092 0.0016,0.32853 -1.719371,0.22311 -2.159723,-0.1323 -0.225374,-0.1819 -2.230286,-2.65244 -4.455361,-5.4901 -5.845108,-7.45431 -5.166203,-6.87917 -8.120202,-6.87917 h -2.461638 v 6.35 6.35 h -0.926042 -0.926042 z m 11.173246,-1.11951 c 1.791054,-0.87794 2.957372,-2.18799 3.355469,-3.76897 0.6057,-2.40546 0.165574,-4.30184 -1.329348,-5.72779 -1.506615,-1.4371 -3.0172,-1.79603 -7.558847,-1.79603 h -3.788436 v 6.11425 6.11426 l 3.902604,-0.0963 c 3.639245,-0.0898 4.004905,-0.14646 5.418558,-0.8394 z m 19.253832,1.95235 v -13.24514 h -5.027079 -5.027083 v -0.79375 -0.79375 h 10.980212 10.9802 v 0.79375 0.79375 h -4.89232 -4.89232 l -0.0686,13.16302 -0.0686,13.16302 -0.99219,0.0821 -0.99219,0.0821 z"
       id="path904" />
  </g>
</svg>
