<?xml version="1.0" encoding="UTF-8" standalone="no"?>
<!-- Created with Inkscape (http://www.inkscape.org/) -->

<svg
   xmlns:dc="http://purl.org/dc/elements/1.1/"
   xmlns:cc="http://creativecommons.org/ns#"
   xmlns:rdf="http://www.w3.org/1999/02/22-rdf-syntax-ns#"
   xmlns:svg="http://www.w3.org/2000/svg"
   xmlns="http://www.w3.org/2000/svg"
   xmlns:sodipodi="http://sodipodi.sourceforge.net/DTD/sodipodi-0.dtd"
   xmlns:inkscape="http://www.inkscape.org/namespaces/inkscape"
   width="102.33336"
   height="49.186409"
   viewBox="0 0 27.0757 13.013904"
   version="1.1"
   id="svg30893"
   inkscape:version="0.92.0 r15299"
   sodipodi:docname="wsp.svg">
  <defs
     id="defs30887">
    <clipPath
       id="clipPath29404"
       clipPathUnits="userSpaceOnUse">
      <path
         inkscape:connector-curvature="0"
         id="path29402"
         d="M 0,0 H 612 V 792 H 0 Z" />
    </clipPath>
    <clipPath
       id="clipPath29380"
       clipPathUnits="userSpaceOnUse">
      <path
         inkscape:connector-curvature="0"
         id="path29378"
         d="M 0,0 H 612 V 792 H 0 Z" />
    </clipPath>
  </defs>
  <sodipodi:namedview
     id="base"
     pagecolor="#ffffff"
     bordercolor="#666666"
     borderopacity="1.0"
     inkscape:pageopacity="0.0"
     inkscape:pageshadow="2"
     inkscape:zoom="7.9144714"
     inkscape:cx="50.666681"
     inkscape:cy="24.093203"
     inkscape:document-units="mm"
     inkscape:current-layer="layer1"
     showgrid="false"
     fit-margin-top="0"
     fit-margin-left="0"
     fit-margin-right="0"
     fit-margin-bottom="0"
     units="px"
     inkscape:window-width="1280"
     inkscape:window-height="744"
     inkscape:window-x="-4"
     inkscape:window-y="-4"
     inkscape:window-maximized="1" />
  <metadata
     id="metadata30890">
    <rdf:RDF>
      <cc:Work
         rdf:about="">
        <dc:format>image/svg+xml</dc:format>
        <dc:type
           rdf:resource="http://purl.org/dc/dcmitype/StillImage" />
        <dc:title></dc:title>
      </cc:Work>
    </rdf:RDF>
  </metadata>
  <g
     inkscape:label="Layer 1"
     inkscape:groupmode="layer"
     id="layer1"
     transform="translate(36.840082,-142.19409)">
    <g
       id="g30949"
       transform="translate(0.13229136,-0.13228851)">
      <g
         transform="matrix(0.35277777,0,0,-0.35277777,-213.2291,162.15169)"
         id="g29374">
        <g
           clip-path="url(#clipPath29380)"
           id="g29376">
          <g
             transform="translate(570.7354,46.0562)"
             id="g29382">
            <path
               inkscape:connector-curvature="0"
               id="path29384"
               style="fill:#ef3427;fill-opacity:1;fill-rule:nonzero;stroke:none"
               d="M 0,0 C 0,4.102 -1.5,7.524 -3.462,9.766 H 2.239 C 4.108,7.487 5.265,3.61 5.265,0 v -0.013 c 0,-3.616 -1.16,-7.499 -3.035,-9.777 H -3.471 C -1.505,-7.548 0,-4.122 0,-0.013 Z" />
          </g>
        </g>
      </g>
      <g
         transform="matrix(0.35277777,0,0,-0.35277777,-34.986235,142.45867)"
         id="g29386">
        <path
           inkscape:connector-curvature="0"
           id="path29388"
           style="fill:#ef3427;fill-opacity:1;fill-rule:nonzero;stroke:none"
           d="M 0,0 H -5.255 L 1.957,-19.559 H 4.75 l 1.231,3.339 z" />
      </g>
      <g
         transform="matrix(0.35277777,0,0,-0.35277777,-30.012875,142.45867)"
         id="g29390">
        <path
           inkscape:connector-curvature="0"
           id="path29392"
           style="fill:#ef3427;fill-opacity:1;fill-rule:nonzero;stroke:none"
           d="M 0,0 H -5.255 L 1.957,-19.559 H 4.75 l 1.231,3.339 z" />
      </g>
      <g
         transform="matrix(0.35277777,0,0,-0.35277777,-15.851674,155.20799)"
         id="g29394">
        <path
           inkscape:connector-curvature="0"
           id="path29396"
           style="fill:#ef3427;fill-opacity:1;fill-rule:nonzero;stroke:none"
           d="m 0,0 v 18.408 0.476 1.457 12.727 1.006 0.582 1.483 H -5.028 V 20.341 0 Z" />
      </g>
      <g
         transform="matrix(0.35277777,0,0,-0.35277777,-213.2291,162.15169)"
         id="g29398">
        <g
           clip-path="url(#clipPath29404)"
           id="g29400">
          <g
             transform="translate(530.6685,52.9212)"
             id="g29406">
            <path
               inkscape:connector-curvature="0"
               id="path29408"
               style="fill:#ef3427;fill-opacity:1;fill-rule:nonzero;stroke:none"
               d="M 0,0 C 0.082,1.002 0.263,1.989 0.679,2.901 H 5.278 C 4.894,2.207 4.533,0.942 4.943,-0.315 5.314,-1.451 6.1,-2.226 7.091,-2.864 c 1.174,-0.756 2.544,-1.177 3.802,-1.764 1.32,-0.614 2.605,-1.257 3.708,-2.215 1.603,-1.392 2.578,-3.043 2.737,-5.177 0.019,-0.255 0.027,-0.511 0.027,-0.767 0,-1.337 -0.21,-2.662 -0.807,-3.868 h -4.722 c 0.464,0.79 0.83,1.867 0.763,2.861 -0.165,2.464 -3.174,3.811 -5.694,4.932 -0.384,0.171 -0.761,0.339 -1.122,0.507 -1.108,0.518 -2.195,1.113 -3.14,1.898 -0.976,0.811 -1.718,1.623 -2.173,2.814 -0.4,1.045 -0.546,2.178 -0.493,3.292 C -0.017,-0.234 -0.01,-0.117 0,0" />
          </g>
        </g>
      </g>
    </g>
  </g>
</svg>
